<svg width="28" height="28" viewBox="0 0 28 28" fill="none" xmlns="http://www.w3.org/2000/svg">
<path d="M5.83331 19.8333H21C23.5773 19.8333 25.6666 17.744 25.6666 15.1667C25.6666 12.9778 24.1597 11.1409 22.1267 10.6369C22.1531 10.4005 22.1666 10.1602 22.1666 9.91667C22.1666 6.37284 19.2938 3.5 15.75 3.5C12.8106 3.5 10.3329 5.47637 9.57314 8.17272C9.49371 8.1687 9.41375 8.16667 9.33331 8.16667C6.75598 8.16667 4.66665 10.256 4.66665 12.8333C4.66665 12.8996 4.66803 12.9655 4.67076 13.031C3.30922 13.5104 2.33331 14.8079 2.33331 16.3333C2.33331 18.2663 3.90032 19.8333 5.83331 19.8333Z" fill="white" fill-opacity="0.6"/>
<path d="M8.65033 21C8.3539 21 8.0829 21.1675 7.95033 21.4326L6.39962 24.534C6.13944 25.0544 6.51784 25.6667 7.09962 25.6667C7.39606 25.6667 7.66705 25.4992 7.79962 25.234L9.35033 22.1326C9.61052 21.6123 9.23212 21 8.65033 21Z" fill="white" fill-opacity="0.6"/>
<path d="M12.1503 21C12.7321 21 13.1105 21.6123 12.8503 22.1326L11.2996 25.234C11.1671 25.4992 10.8961 25.6667 10.5996 25.6667C10.0178 25.6667 9.63944 25.0544 9.89962 24.534L11.4503 21.4326C11.5829 21.1675 11.8539 21 12.1503 21Z" fill="white" fill-opacity="0.6"/>
<path d="M19.1503 21C19.7321 21 20.1105 21.6123 19.8503 22.1326L18.2996 25.234C18.1671 25.4992 17.8961 25.6667 17.5996 25.6667C17.0178 25.6667 16.6394 25.0544 16.8996 24.534L18.4503 21.4326C18.5829 21.1675 18.8539 21 19.1503 21Z" fill="white" fill-opacity="0.6"/>
<path d="M15.6503 21C16.2321 21 16.6105 21.6123 16.3503 22.1326L14.7996 25.234C14.6671 25.4992 14.3961 25.6667 14.0996 25.6667C13.5178 25.6667 13.1394 25.0544 13.3996 24.534L14.9503 21.4326C15.0829 21.1675 15.3539 21 15.6503 21Z" fill="white" fill-opacity="0.6"/>
</svg>
