<svg width="28" height="28" viewBox="0 0 28 28" fill="none" xmlns="http://www.w3.org/2000/svg">
<path d="M17.5104 19.8333H21C23.5773 19.8333 25.6666 17.744 25.6666 15.1667C25.6666 12.9778 24.1597 11.1409 22.1267 10.6369C22.1531 10.4005 22.1666 10.1602 22.1666 9.91667C22.1666 6.37284 19.2938 3.5 15.75 3.5C12.8106 3.5 10.3329 5.47637 9.57314 8.17272C9.49371 8.1687 9.41375 8.16667 9.33331 8.16667C6.75598 8.16667 4.66665 10.256 4.66665 12.8333C4.66665 12.8996 4.66803 12.9655 4.67076 13.031C3.30922 13.5104 2.33331 14.8079 2.33331 16.3333C2.33331 18.2663 3.90032 19.8333 5.83331 19.8333H9.15627L14.1537 11.0878C14.7473 10.0491 16.3333 10.4703 16.3333 11.6667V16.3333H17.5C18.3958 16.3333 18.9574 17.3011 18.5129 18.0788L17.5104 19.8333Z" fill="white" fill-opacity="0.6"/>
<path d="M10.5 19.8333L15.1666 11.6667V17.5H17.5L12.8333 25.6667V19.8333H10.5Z" fill="white" fill-opacity="0.6"/>
</svg>
