<svg width="200" height="200" viewBox="0 0 200 200" fill="none" xmlns="http://www.w3.org/2000/svg">
<path d="M28.0556 36.6111L25.8889 34.4445C23.7222 32.2778 20.2222 32.3333 18.1111 34.4445L18.0556 34.5C15.8889 36.6667 15.8889 40.1667 18.0556 42.2778L20.2222 44.4445C22.3889 46.6111 25.8333 46.6111 28 44.4445L28.0556 44.3889C30.2222 42.2778 30.2222 38.7222 28.0556 36.6111Z" fill="white"/>
<path d="M11.1667 71.9445H5.5C2.44444 71.9445 0 74.3889 0 77.4445V77.5C0 80.5556 2.44444 83 5.5 83H11.1111C14.2222 83.0556 16.6667 80.6111 16.6667 77.5556V77.5C16.6667 74.3889 14.2222 71.9445 11.1667 71.9445Z" fill="white"/>
<path d="M61.1667 16.6667H61.1111C58 16.6667 55.5556 19.1111 55.5556 22.1667V27.5C55.5556 30.5556 58 33 61.0556 33H61.1111C64.2222 33.0556 66.6667 30.6111 66.6667 27.5556V22.1667C66.6667 19.1111 64.2222 16.6667 61.1667 16.6667Z" fill="white"/>
<path d="M104.167 34.5C102 32.3333 98.5 32.3333 96.3333 34.4445L94.1667 36.6111C92 38.7778 92 42.2778 94.1667 44.3889L94.2222 44.4445C96.3889 46.6111 99.8889 46.6111 102 44.4445L104.167 42.2778C106.333 40.1111 106.333 36.6667 104.167 34.5Z" fill="white"/>
<path d="M61.1111 44.1667C42.7222 44.1667 27.7778 59.1111 27.7778 77.5C27.7778 89.4197 34.0569 99.8922 43.4831 105.785C47.9936 92.7189 60.4007 83.3333 75 83.3333C75.5745 83.3333 76.1457 83.3479 76.7131 83.3766C79.1196 74.8357 83.9395 67.3061 90.3899 61.5706C84.7325 51.2076 73.7332 44.1667 61.1111 44.1667Z" fill="white"/>
<path d="M18.0556 120.5C20.2222 122.667 23.7222 122.667 25.8889 120.5L28.0556 118.333C30.2222 116.167 30.1667 112.667 28.0556 110.556L28 110.5C25.8333 108.333 22.3333 108.333 20.1667 110.5L18 112.667C15.8889 114.889 15.8889 118.333 18.0556 120.5Z" fill="white"/>
<path d="M58.3333 175H166.667C185.076 175 200 160.076 200 141.667C200 126.032 189.236 112.911 174.714 109.311C174.903 107.622 175 105.906 175 104.167C175 78.8536 154.48 58.3333 129.167 58.3333C108.171 58.3333 90.4732 72.4503 85.0464 91.7099C84.479 91.6812 83.9079 91.6667 83.3333 91.6667C64.9238 91.6667 50 106.591 50 125C50 125.473 50.0099 125.944 50.0294 126.412C40.3041 129.836 33.3333 139.104 33.3333 150C33.3333 163.807 44.5262 175 58.3333 175Z" fill="white"/>
</svg>
