<svg width="30" height="30" viewBox="0 0 30 30" fill="none" xmlns="http://www.w3.org/2000/svg">
<path d="M7.56537 5.75799L7.07765 5.26826C6.58993 4.77854 5.80207 4.7911 5.32685 5.26826L5.31435 5.28082C4.82663 5.77055 4.82663 6.56164 5.31435 7.03881L5.80207 7.52854C6.28979 8.01826 7.06514 8.01826 7.55287 7.52854L7.56537 7.51598C8.05309 7.03881 8.05309 6.23516 7.56537 5.75799ZM3.76364 13.7443H2.48806C1.80025 13.7443 1.25 14.2968 1.25 14.9874V15C1.25 15.6906 1.80025 16.2431 2.48806 16.2431H3.75114C4.45146 16.2557 5.00171 15.7032 5.00171 15.0126V15C5.00171 14.2968 4.45146 13.7443 3.76364 13.7443ZM15.0188 1.25H15.0063C14.3059 1.25 13.7557 1.80251 13.7557 2.49315V3.69863C13.7557 4.38927 14.3059 4.94178 14.9937 4.94178H15.0063C15.7066 4.95434 16.2568 4.40183 16.2568 3.71119V2.49315C16.2568 1.80251 15.7066 1.25 15.0188 1.25ZM24.6982 5.28082C24.2104 4.7911 23.4226 4.7911 22.9349 5.26826L22.4471 5.75799C21.9594 6.24772 21.9594 7.03881 22.4471 7.51598L22.4596 7.52854C22.9474 8.01826 23.7352 8.01826 24.2104 7.52854L24.6982 7.03881C25.1859 6.54909 25.1859 5.77055 24.6982 5.28082ZM22.4346 24.242L22.9224 24.7317C23.4101 25.2215 24.1979 25.2215 24.6857 24.7317C25.1734 24.242 25.1734 23.4509 24.6857 22.9612L24.1979 22.4715C23.7102 21.9817 22.9224 21.9943 22.4471 22.4715C21.9469 22.9737 21.9469 23.7523 22.4346 24.242ZM25.0108 14.9874V15C25.0108 15.6906 25.5611 16.2431 26.2489 16.2431H27.5119C28.1998 16.2431 28.75 15.6906 28.75 15V14.9874C28.75 14.2968 28.1998 13.7443 27.5119 13.7443H26.2489C25.5611 13.7443 25.0108 14.2968 25.0108 14.9874ZM15.0063 7.46575C10.8669 7.46575 7.50284 10.8436 7.50284 15C7.50284 19.1564 10.8669 22.5342 15.0063 22.5342C19.1456 22.5342 22.5097 19.1564 22.5097 15C22.5097 10.8436 19.1456 7.46575 15.0063 7.46575ZM14.9937 28.75H15.0063C15.6941 28.75 16.2443 28.1975 16.2443 27.5068V26.3014C16.2443 25.6107 15.6941 25.0582 15.0063 25.0582H14.9937C14.3059 25.0582 13.7557 25.6107 13.7557 26.3014V27.5068C13.7557 28.1975 14.3059 28.75 14.9937 28.75ZM5.31435 24.7192C5.80207 25.2089 6.58993 25.2089 7.07765 24.7192L7.56537 24.2295C8.05309 23.7397 8.04059 22.9486 7.56537 22.4715L7.55287 22.4589C7.06514 21.9692 6.27729 21.9692 5.78956 22.4589L5.30184 22.9486C4.82663 23.4509 4.82663 24.2295 5.31435 24.7192Z" fill="white" fill-opacity="0.8"/>
</svg>
